<?xml version="1.0" standalone="no"?>
<!DOCTYPE svg PUBLIC "-//W3C//DTD SVG 20010904//EN"
 "http://www.w3.org/TR/2001/REC-SVG-20010904/DTD/svg10.dtd">
<svg version="1.0" xmlns="http://www.w3.org/2000/svg"
 width="705.000000pt" height="705.000000pt" viewBox="0 0 705.000000 705.000000"
 preserveAspectRatio="xMidYMid meet">
<metadata>
Created by potrace 1.14, written by Peter Selinger 2001-2017
</metadata>
<g transform="translate(0.000000,705.000000) scale(0.100000,-0.100000)"
fill="#000000" stroke="none">
<path d="M1761 6566 c-9 -11 -140 -237 -303 -521 -47 -82 -95 -166 -106 -185
-30 -50 -142 -245 -175 -305 -16 -27 -33 -54 -38 -60 -5 -5 -9 -14 -9 -21 0
-7 93 -66 208 -132 583 -337 662 -382 669 -382 4 0 26 32 48 72 22 39 47 83
55 97 8 14 31 53 50 86 19 33 40 69 47 80 7 11 16 27 20 35 4 8 35 63 70 122
l63 106 324 0 c229 -1 326 -4 328 -12 2 -6 4 -271 3 -589 l0 -579 25 -18 c14
-9 128 -76 254 -149 217 -125 229 -131 255 -118 43 22 444 255 466 271 20 14
20 26 20 603 l0 588 335 2 335 2 170 -294 c93 -162 173 -295 177 -295 5 0 83
43 176 96 92 53 223 129 292 169 69 39 186 107 260 150 74 42 139 81 143 85 5
4 -51 111 -123 236 -73 126 -144 249 -158 274 -13 25 -55 97 -92 160 -37 63
-78 135 -92 160 -14 25 -56 97 -93 162 l-68 116 -1763 0 c-1307 0 -1766 -3
-1773 -12z"/>
<path d="M833 4963 c-28 -49 -60 -104 -71 -123 -11 -19 -84 -145 -162 -280
-78 -135 -152 -263 -165 -285 -12 -22 -48 -85 -80 -140 -32 -55 -101 -174
-153 -265 -52 -91 -117 -202 -143 -248 -27 -45 -49 -87 -49 -92 0 -5 22 -47
49 -92 58 -98 183 -314 219 -378 14 -25 81 -142 150 -260 69 -118 134 -231
144 -250 26 -46 244 -423 488 -845 108 -187 208 -360 222 -385 58 -104 262
-457 278 -480 9 -14 19 -33 23 -42 10 -28 20 -22 48 30 28 51 205 359 419 728
74 126 133 233 133 239 0 5 -29 60 -65 120 -36 61 -111 191 -168 290 -57 99
-135 234 -173 300 -38 66 -112 194 -165 285 -52 91 -128 223 -170 294 -41 72
-82 144 -92 160 -10 17 -41 72 -70 121 -83 143 -90 155 -90 166 0 15 63 119
72 119 5 0 162 -89 351 -198 462 -268 805 -466 847 -489 19 -11 132 -77 251
-146 120 -69 234 -136 255 -148 22 -12 68 -38 104 -59 36 -21 81 -47 100 -58
19 -11 76 -43 125 -72 50 -29 108 -62 130 -75 22 -12 57 -32 77 -45 l38 -22
42 24 c80 46 123 70 323 186 110 64 209 120 220 126 16 9 195 113 285 166 46
27 281 162 450 259 107 61 202 115 210 120 8 6 105 62 215 125 110 64 211 123
225 131 121 73 285 163 291 159 9 -5 59 -94 59 -105 0 -4 -13 -29 -29 -56 -59
-99 -241 -415 -241 -419 0 -3 -8 -17 -19 -32 -10 -15 -99 -166 -197 -337 -97
-170 -233 -406 -301 -523 -67 -117 -134 -232 -147 -255 -13 -23 -33 -58 -44
-77 l-22 -36 118 -204 c65 -113 154 -266 197 -340 43 -74 83 -144 89 -155 11
-18 58 -100 96 -166 8 -14 31 -54 50 -87 19 -34 37 -62 40 -62 3 0 35 53 73
118 37 64 74 128 82 142 8 14 85 147 170 295 85 149 159 277 164 285 9 13 87
149 162 280 14 25 60 104 101 175 41 72 162 281 268 465 106 184 212 367 235
405 23 39 45 77 49 85 4 8 12 24 19 35 7 11 70 120 140 242 l128 222 -32 58
c-18 32 -93 164 -169 293 -75 129 -139 242 -143 250 -4 8 -15 29 -26 45 -10
17 -28 48 -41 70 -12 22 -89 155 -170 295 -81 140 -157 271 -168 291 -72 128
-116 199 -124 199 -5 0 -85 -44 -176 -97 -92 -53 -185 -107 -207 -119 -22 -12
-107 -61 -190 -109 -203 -118 -768 -445 -895 -517 -19 -11 -118 -68 -220 -127
-102 -59 -266 -154 -365 -211 -99 -57 -213 -123 -252 -147 -40 -24 -75 -43
-78 -43 -2 0 -29 -16 -59 -35 -30 -19 -57 -35 -60 -35 -2 0 -31 -16 -64 -35
l-60 -36 -41 23 c-23 13 -50 28 -59 33 -21 12 -100 58 -420 244 -133 78 -245
141 -248 141 -3 0 -28 15 -57 33 -29 18 -59 36 -67 40 -8 4 -31 17 -50 28 -19
12 -141 82 -270 157 -129 74 -273 158 -320 185 -47 27 -128 74 -180 103 -52
30 -102 59 -110 64 -16 11 -216 126 -283 164 -23 13 -156 89 -296 170 -139 80
-254 146 -255 146 -1 0 -25 -39 -53 -87z"/>
<path d="M3015 1805 c0 -256 -2 -295 -15 -296 -8 -1 -71 -2 -140 -3 -69 -1
-130 -5 -137 -9 -6 -4 -18 -20 -26 -35 -11 -22 -125 -220 -219 -381 -22 -38
-210 -366 -236 -411 -11 -19 -38 -67 -61 -106 -22 -39 -41 -73 -41 -75 0 -2
623 -4 1385 -4 762 0 1385 1 1385 3 0 4 -214 376 -325 567 -29 50 -100 171
-157 270 l-103 180 -145 0 -145 0 0 288 c0 158 -3 287 -7 287 -4 0 -24 -10
-45 -22 -50 -28 -244 -137 -308 -172 -27 -16 -69 -39 -91 -52 l-42 -25 -51 31
c-29 16 -54 30 -56 30 -3 0 -39 20 -81 45 -41 25 -77 45 -80 45 -2 0 -41 22
-86 48 -94 54 -164 92 -170 92 -2 0 -3 -133 -3 -295z"/>
</g>
</svg>
